<svg width="10" height="15" viewBox="0 0 10 15" fill="none" xmlns="http://www.w3.org/2000/svg">
<path d="M0.711109 11.4257V12.1397H1.41776V11.4257H2.15727V10.719H2.86392V10.0058H3.54713L3.54425 11.4224H4.25417V12.8586H4.99041L4.98714 14.2917H5.7036V15H7.85641V14.2917H8.55979V12.8521H7.85968V11.4323H7.14322V10.0058H6.43329V8.56619H9.27377V7.85627H8.55979V7.14583H7.85314V6.41221H7.14649V5.70104H6.43657V4.99112H5.72664V4.28238H4.99041V3.5737H4.28376V2.83916H3.57331V2.12676H2.86392V1.41683H2.15439V0.709399H1.41776V0H0.709473L0.711109 11.4257V11.4257Z" fill="#7F7F7F"/>
<path d="M0 0H0.709333V0.709333H1.41762V1.41768H0.681384V10.7125H1.44393V10.0058H2.15713V9.30243H2.87039V8.59126H3.54699V9.99592H4.25404V11.4224H4.99027V12.8586H5.70347V14.2917H7.14635V12.852H6.4397V11.4322H5.69692V10.0058H4.98372V7.85627H7.14635V7.14583H6.43643V6.41221H5.72736V5.6998H4.99151V4.98863H4.28159V4.28244H3.57317V3.57252H2.86299V2.83916H2.15549V2.12676H1.41847L1.41762 1.41768H2.15425L2.15549 2.12676H2.86378L2.86299 2.83916H3.57317V3.57252H4.28362L4.28159 4.28244H4.99027L4.99151 4.98863H5.72651L5.72736 5.6998H6.43643V6.41221H7.14635V7.14583H7.853V7.85627H8.55965V8.56619H5.70019L5.69692 10.0058H6.43316L6.4397 11.4322H7.14308L7.14635 12.852H7.85954V14.2917H7.14635V15H5.70347V14.2917H4.987L4.99027 12.8586H4.25404V11.4224H3.54411L3.54699 9.99592L2.15713 10.0058V10.719L1.44393 10.7125V11.4257H0.71097V12.129H0V0V0Z" fill="black"/>
<path d="M2.15704 10.719H1.44385V11.4256H2.15704V10.719Z" fill="black"/>
<path d="M1.41739 1.41766H0.681152V10.719H1.41739V1.41766Z" fill="#FF0000"/>
<path d="M1.41846 2.12677H2.15548L2.15567 2.83911L2.15711 10.0058H1.44392L1.41846 2.12677V2.12677Z" fill="#FF7F00"/>
<path d="M2.86307 2.83917L2.86385 3.57253L2.87046 9.30244H2.1572L2.15576 2.83917H2.86307V2.83917Z" fill="#FF7F00"/>
<path d="M3.57317 3.57251L3.56944 4.28237L3.54699 8.59125H2.87031L2.86377 3.57251H3.57317V3.57251Z" fill="#7FFF00"/>
<path d="M4.28196 4.28241L4.27856 4.98861L4.25441 9.99596H3.54736L3.56981 4.28235L4.28196 4.28241V4.28241Z" fill="#00FF00"/>
<path d="M4.99138 4.98865L4.99125 5.69981L4.99014 11.4224H4.25391L4.27806 4.98865H4.99138V4.98865Z" fill="#00FF7F"/>
<path d="M5.72752 5.69983V7.8563H4.98389L4.99155 5.69983H5.72752Z" fill="#00FFFF"/>
<path d="M4.98389 10.0058H5.69708L5.70035 11.4323L5.70363 12.8586H4.99043L4.98389 10.0058Z" fill="#00FFFF"/>
<path d="M6.4397 11.4322V14.2916H5.70347L5.7002 11.4322H6.4397Z" fill="#007FFF"/>
<path d="M5.72705 6.41223H6.43612V7.85629H5.72705V6.41223Z" fill="#007FFF"/>
<path d="M7.14645 7.14581H6.43652V7.85626H7.14645V7.14581Z" fill="#7F00FF"/>
<path d="M7.1461 12.8521H6.43945V14.2917H7.1461V12.8521Z" fill="#7F00FF"/>
</svg>
