<svg width="13" height="15" viewBox="0 0 13 15" fill="none" xmlns="http://www.w3.org/2000/svg">
<g clip-path="url(#clip0_302_1630)">
<path d="M11.2447 2.34444C11.3925 2.34444 11.5403 2.34444 11.6881 2.34204C11.7149 2.34204 11.7174 2.35239 11.7173 2.37418C11.7173 2.50184 11.7189 2.62967 11.716 2.75714C11.7149 2.79999 11.7232 2.81477 11.7697 2.81348C11.8957 2.8096 12.0219 2.81348 12.1481 2.81145C12.1771 2.81145 12.192 2.81717 12.1865 2.84839C12.1858 2.85608 12.1858 2.8638 12.1865 2.87149C12.1865 6.89386 12.1868 10.9162 12.1876 14.9386C12.1876 14.9848 12.1783 14.9988 12.129 14.9988C8.10578 14.9974 4.08247 14.9974 0.0591075 14.9988C0.0142173 14.9988 -0.000561656 14.9907 0.00110094 14.9434C0.00571927 14.8052 0.00424069 14.6663 0.00497962 14.5285C0.0198158 14.5171 0.0384768 14.5119 0.0570734 14.5139C0.196916 14.5139 0.336576 14.5121 0.476419 14.5139C0.502651 14.5115 0.528699 14.5126 0.554931 14.5126H11.6055C11.7082 14.5126 11.7014 14.5172 11.7014 14.4177V3.39373C11.7014 3.28289 11.7082 3.29286 11.5981 3.29231C10.8815 3.2888 10.1648 3.29046 9.44817 3.28991C9.42231 3.28991 9.39534 3.29526 9.37133 3.28012C9.35991 3.26348 9.35504 3.24322 9.35766 3.22322C9.35766 3.10665 9.35655 2.9899 9.35766 2.87315C9.35766 2.81163 9.368 2.80277 9.43155 2.80258C9.72491 2.80258 10.0181 2.80258 10.3112 2.80258C10.5954 2.80424 10.8795 2.80018 11.1636 2.80073C11.2283 2.80073 11.2305 2.79815 11.2308 2.73312C11.2308 2.62708 11.2308 2.52105 11.2308 2.41501C11.2284 2.39359 11.2313 2.37189 11.2392 2.35183L11.2447 2.34444Z" fill="black"/>
<path d="M0.475972 14.5276H0.00453243C0.00453243 14.5091 0.00268555 14.4907 0.00268555 14.4722C0.00268555 9.66913 0.00268555 4.86661 0.00268555 0.0646426C0.00268555 -0.000753133 0.00268492 -0.00075301 0.0690041 -0.00075301H9.31121C9.38196 -0.00075301 9.37217 -0.010544 9.37254 0.05947C9.37254 0.173266 9.37254 0.287247 9.37254 0.401043C9.37254 0.47198 9.3633 0.463298 9.43738 0.463667C9.55727 0.463667 9.67754 0.463667 9.79724 0.463667C9.81184 0.463667 9.82809 0.457201 9.84084 0.470687C9.82126 0.487498 9.79743 0.483618 9.77489 0.483803C9.66405 0.483803 9.55321 0.483803 9.44366 0.483803C9.39027 0.483803 9.38677 0.487867 9.38658 0.541994C9.38658 0.649324 9.38658 0.756655 9.38658 0.863985C9.38468 0.880783 9.38743 0.89778 9.39452 0.913124C9.40838 0.930304 9.42778 0.926609 9.44588 0.926609H9.78228C9.80352 0.926609 9.8255 0.924208 9.84453 0.938063C9.85306 0.949061 9.85733 0.962775 9.85654 0.976672C9.85765 1.10839 9.85876 1.23992 9.85654 1.37145C9.85609 1.37912 9.85441 1.38667 9.85155 1.3938C9.84904 1.39926 9.84499 1.40388 9.83991 1.4071C9.81829 1.41519 9.79507 1.4181 9.77212 1.4156C9.66645 1.4156 9.56078 1.4156 9.45512 1.4156C9.38917 1.4156 9.38769 1.41745 9.38713 1.48173C9.38713 1.61105 9.38861 1.74221 9.38621 1.87245C9.38898 2.08895 9.38529 2.30565 9.38806 2.52215C9.38916 2.60769 9.37698 2.69377 9.39619 2.77856C9.48209 2.80129 9.56965 2.78706 9.65647 2.78817C9.84841 2.79076 10.0403 2.78817 10.2325 2.78909C10.257 2.78626 10.2818 2.78898 10.3051 2.79704C10.3077 2.79847 10.31 2.8006 10.3115 2.8032C10.3131 2.80581 10.3139 2.80878 10.3139 2.81182L9.61472 2.81385C9.5473 2.81385 9.47968 2.81514 9.41152 2.81385C9.38344 2.81385 9.37106 2.81828 9.37162 2.85079C9.37365 2.99175 9.37273 3.13288 9.37291 3.27402C9.36825 3.27902 9.36247 3.28284 9.35605 3.28519C9.34963 3.28753 9.34275 3.28832 9.33596 3.2875C9.20111 3.2875 9.06625 3.28898 8.9314 3.2875C8.92376 3.28723 8.91624 3.28554 8.90923 3.28252C8.89076 3.2718 8.88891 3.25296 8.88743 3.23449C8.88577 3.21287 8.88651 3.19144 8.88651 3.16983V0.578017C8.88651 0.48565 8.88651 0.48565 8.79728 0.48565H0.569818C0.543955 0.48565 0.517351 0.480847 0.492781 0.493963C0.48739 0.499492 0.483329 0.506172 0.480897 0.5135C0.478465 0.520828 0.477725 0.528613 0.478741 0.536267C0.478741 0.554741 0.478741 0.573214 0.478741 0.591688C0.478741 5.05891 0.478741 9.52627 0.478741 13.9937C0.478741 14.16 0.476898 14.3263 0.482624 14.4925C0.485143 14.5046 0.482749 14.5173 0.475972 14.5276V14.5276Z" fill="#7F7F7F"/>
<path d="M9.84098 0.941402C9.69874 0.941402 9.55656 0.941402 9.41444 0.941402C9.39985 0.941402 9.3834 0.946574 9.37158 0.93235C9.38751 0.920577 9.40732 0.915295 9.427 0.917571C9.54671 0.917571 9.66628 0.917571 9.78574 0.917571C9.80577 0.915321 9.82591 0.920587 9.84227 0.93235C9.98211 0.93235 10.1221 0.934382 10.262 0.931241C10.3063 0.930318 10.3152 0.945096 10.3144 0.986661C10.3119 1.11265 10.3144 1.23882 10.3128 1.36481C10.3128 1.39511 10.3207 1.40342 10.3508 1.40305C10.477 1.40139 10.603 1.40397 10.7292 1.40139C10.7698 1.40139 10.7846 1.40952 10.7836 1.45385C10.7807 1.59369 10.7825 1.73372 10.7827 1.87375C10.7924 1.88582 10.7973 1.90099 10.7966 1.91642C10.7966 2.04943 10.7986 2.18244 10.7966 2.31545C10.7962 2.32176 10.7949 2.32797 10.7927 2.33392C10.7905 2.3396 10.7866 2.34449 10.7816 2.34796C10.7786 2.34825 10.7756 2.34758 10.773 2.34605C10.7704 2.34453 10.7684 2.34222 10.7672 2.33946C10.7612 2.3253 10.7586 2.30992 10.7596 2.29457C10.7596 2.1551 10.758 2.01581 10.7606 1.87634C10.7583 1.74702 10.7606 1.61771 10.7594 1.4884C10.7594 1.4315 10.7556 1.4278 10.6996 1.42762C10.5952 1.42762 10.4907 1.42762 10.3856 1.42762C10.332 1.42762 10.3274 1.43224 10.327 1.48526C10.327 1.58981 10.327 1.69419 10.327 1.7993C10.329 1.82235 10.3268 1.84557 10.3205 1.86784C10.3181 1.87327 10.3141 1.87784 10.3091 1.88095C10.3065 1.88268 10.3036 1.88393 10.3006 1.88465C10.15 1.89355 9.99892 1.89293 9.84837 1.8828C9.84283 1.8803 9.83823 1.8761 9.83525 1.87079C9.82888 1.85517 9.82617 1.8383 9.82731 1.82147C9.82731 1.70078 9.82731 1.58009 9.82731 1.45939C9.82496 1.44106 9.82915 1.42249 9.83913 1.40693L9.84264 1.40342C9.86111 1.38661 9.88587 1.38975 9.90859 1.38975C10.0161 1.38975 10.1234 1.38975 10.2309 1.38975C10.2845 1.38975 10.2882 1.3855 10.2884 1.33156C10.2884 1.22404 10.2884 1.11653 10.2884 1.00901C10.2884 0.972067 10.2751 0.957104 10.2374 0.957473C10.1284 0.958582 10.0194 0.957473 9.91043 0.957473C9.88697 0.95618 9.86167 0.958951 9.84098 0.941402Z" fill="#7F7F7F"/>
<path d="M9.84317 0.932547C9.68604 0.938089 9.52884 0.938089 9.37158 0.932547C9.37158 0.792704 9.37288 0.652862 9.37158 0.513019C9.37158 0.481245 9.37915 0.471269 9.41203 0.471823C9.55501 0.473486 9.6978 0.471823 9.84077 0.471823L9.84317 0.932547Z" fill="black"/>
<path d="M10.7841 2.34445C10.7741 2.25633 10.7809 2.16785 10.7798 2.07954C10.7798 2.01119 10.7817 1.94266 10.783 1.87412C10.9254 1.87412 11.068 1.87412 11.2106 1.87412C11.2324 1.87412 11.2476 1.87301 11.2476 1.90386C11.2452 2.05165 11.2456 2.19814 11.245 2.34537C11.2291 2.35723 11.2093 2.36264 11.1896 2.36052C11.0732 2.36052 10.9568 2.36052 10.8404 2.36052C10.821 2.35923 10.7996 2.36071 10.7841 2.34445Z" fill="black"/>
<path d="M8.90974 3.2779L9.37268 3.27605C9.39116 3.27605 9.40963 3.2779 9.4281 3.2779C9.88809 3.2779 10.348 3.2779 10.8079 3.2779C11.0939 3.2779 11.3806 3.28011 11.666 3.2779C11.7109 3.2779 11.7173 3.29267 11.7173 3.33221C11.7163 5.12116 11.7163 6.91018 11.7173 8.69925C11.7173 10.6253 11.7176 12.5512 11.7183 14.4771C11.7183 14.5196 11.7072 14.5291 11.6658 14.5291C7.95127 14.528 4.23682 14.5276 0.522426 14.528C0.507093 14.528 0.49176 14.528 0.476427 14.528C0.470325 14.4995 0.467352 14.4704 0.46756 14.4413C0.46756 9.80513 0.46756 5.16895 0.46756 0.532764C0.46756 0.512443 0.457954 0.489721 0.476612 0.471802C0.487895 0.486617 0.493054 0.505201 0.491022 0.523712C0.491022 0.546803 0.491022 0.569895 0.491022 0.592987C0.491022 5.03988 0.491022 9.48677 0.491022 13.9337C0.491022 14.0536 0.48123 14.043 0.600383 14.043H11.1199C11.2424 14.043 11.2307 14.0521 11.2307 13.935C11.2307 10.4264 11.2307 6.91775 11.2307 3.40906C11.2307 3.29027 11.2409 3.30191 11.1247 3.30191C10.4142 3.30191 9.70367 3.30191 8.99305 3.30191C8.96387 3.30062 8.92895 3.31373 8.90974 3.2779Z" fill="#BFBFBF"/>
<path d="M10.7841 2.34445H11.246C11.246 2.48873 11.246 2.63283 11.2474 2.77711C11.2474 2.80519 11.2391 2.81406 11.2105 2.81406C10.9114 2.81406 10.6123 2.81406 10.3132 2.81406C10.3132 2.81165 10.3132 2.80907 10.3132 2.80648L10.3195 2.80039C10.341 2.7919 10.3642 2.78891 10.3871 2.7917C10.4957 2.7917 10.6046 2.7917 10.7134 2.7917C10.7644 2.7917 10.7688 2.78727 10.7688 2.73628C10.7688 2.62913 10.7688 2.5218 10.7688 2.41465C10.7688 2.39193 10.7655 2.36828 10.7799 2.34796L10.7841 2.34445Z" fill="#7F7F7F"/>
<path d="M8.90978 3.27793C8.92733 3.29234 8.9482 3.28532 8.96741 3.28532C9.70881 3.28618 10.4502 3.28618 11.1914 3.28532C11.2367 3.28532 11.2469 3.29806 11.2469 3.34184C11.2457 6.89515 11.2457 10.4485 11.2469 14.0019C11.2469 14.0454 11.2371 14.0588 11.1914 14.0588C7.63702 14.0577 4.08261 14.0577 0.528192 14.0588C0.492539 14.0588 0.473877 14.0563 0.473877 14.0108C0.475109 9.4991 0.475541 4.9874 0.475171 0.475691C0.475075 0.474153 0.475075 0.47261 0.475171 0.471073C0.493645 0.471073 0.512118 0.46941 0.530592 0.46941H8.83995C8.91181 0.46941 8.90294 0.460358 8.90294 0.533698C8.90294 1.42892 8.90294 2.32414 8.90294 3.21937C8.90349 3.23895 8.89703 3.25964 8.90978 3.27793Z" fill="#FDFDFD"/>
<path d="M10.3132 2.80629C10.0123 2.80629 9.71131 2.80673 9.41019 2.80759C9.38507 2.80759 9.3714 2.80463 9.37158 2.77341C9.37306 2.47396 9.37288 2.1745 9.37325 1.87505C9.38078 1.86853 9.38963 1.86372 9.3992 1.86095C9.40876 1.85818 9.41882 1.8575 9.42867 1.85898C9.54788 1.85898 9.66703 1.85898 9.78612 1.85898C9.80581 1.85657 9.82567 1.86186 9.84154 1.87375V1.87375C9.85835 1.89223 9.85577 1.9168 9.85595 1.93952C9.85595 2.05036 9.85595 2.1612 9.85595 2.27204C9.85595 2.32562 9.8602 2.32968 9.91396 2.33005C10.0217 2.33005 10.1292 2.33005 10.2369 2.33005C10.2599 2.328 10.2831 2.33026 10.3052 2.3367C10.3107 2.33931 10.3153 2.34349 10.3183 2.34871C10.3254 2.36749 10.3282 2.38763 10.3265 2.40764C10.3265 2.51848 10.3265 2.62932 10.3265 2.74016C10.3265 2.76288 10.3292 2.78671 10.3109 2.80537L10.3132 2.80629Z" fill="#FEFEFE"/>
<path d="M9.842 1.87411L9.373 1.8754C9.373 1.72946 9.37245 1.58353 9.37134 1.43759C9.37134 1.41579 9.37595 1.40341 9.40163 1.4036C9.54756 1.40507 9.69331 1.40526 9.83923 1.406L9.842 1.87411Z" fill="#BFBFBF"/>
<path d="M9.84106 0.941406C9.9809 0.941406 10.1206 0.943254 10.2604 0.941406C10.2997 0.941406 10.3086 0.953229 10.3079 0.990545C10.3057 1.11653 10.3068 1.24252 10.3079 1.36851C10.3079 1.39105 10.3058 1.40546 10.2765 1.40546C10.1322 1.40361 9.98793 1.40361 9.84365 1.40287C9.84267 1.24893 9.8418 1.0951 9.84106 0.941406Z" fill="black"/>
<path d="M10.3129 2.34445C10.1705 2.34445 10.0281 2.34298 9.88565 2.34445C9.85166 2.34445 9.84095 2.33559 9.84132 2.30067C9.84335 2.15824 9.84224 2.01581 9.84224 1.87357L10.3099 1.87597C10.3284 1.88834 10.3271 1.90774 10.3271 1.92566C10.3282 2.04968 10.3282 2.17357 10.3271 2.29735C10.3282 2.30576 10.3275 2.31431 10.3251 2.32243C10.3226 2.33055 10.3185 2.33806 10.3129 2.34445V2.34445Z" fill="#BFBFBF"/>
<path d="M10.313 2.34444C10.3119 2.1884 10.3109 2.0323 10.3101 1.87614L10.3138 1.87282C10.3298 1.86123 10.3496 1.85627 10.3692 1.85896C10.4839 1.85896 10.5986 1.85896 10.7135 1.85896C10.7348 1.85896 10.7567 1.85896 10.7737 1.87503C10.7737 2.03169 10.7737 2.18834 10.7737 2.34499C10.7579 2.36051 10.7368 2.35921 10.7183 2.35921C10.6022 2.35921 10.4859 2.35921 10.3694 2.35921C10.3497 2.36147 10.3299 2.35619 10.3139 2.34444H10.313Z" fill="#7F7F7F"/>
<path d="M10.3131 2.34445H10.7749L10.7808 2.34741C10.7808 2.48984 10.7808 2.63246 10.7834 2.77508C10.7834 2.80519 10.7666 2.80556 10.7448 2.80556C10.6007 2.80556 10.4566 2.80464 10.3125 2.80427L10.3131 2.34445Z" fill="#BFBFBF"/>
<path d="M10.7746 1.87523L10.3137 1.8732C10.3137 1.72892 10.3126 1.58465 10.3113 1.44019C10.3113 1.4158 10.3203 1.40878 10.3436 1.40897C10.4757 1.40897 10.6078 1.41008 10.7398 1.40897C10.7703 1.40897 10.7749 1.42098 10.7747 1.44702C10.7738 1.58964 10.7746 1.73243 10.7746 1.87523Z" fill="black"/>
<path d="M6.0905 9.84108C4.86018 9.84108 3.62974 9.84145 2.39917 9.84219C2.35576 9.84219 2.34375 9.83295 2.34375 9.78677C2.34523 8.41606 2.34523 7.04541 2.34375 5.67482C2.34375 5.63307 2.35372 5.62125 2.39658 5.62125C4.86227 5.62235 7.32785 5.62235 9.79329 5.62125C9.83449 5.62125 9.84335 5.63178 9.84335 5.67186C9.842 7.04405 9.842 8.41624 9.84335 9.78843C9.84335 9.82944 9.83449 9.84145 9.79163 9.84145C8.55773 9.84071 7.32402 9.84059 6.0905 9.84108Z" fill="#875C2D"/>
<path d="M6.09198 9.37152C5.01682 9.37152 3.94179 9.37189 2.86689 9.37263C2.82311 9.37263 2.81055 9.36302 2.81055 9.31721C2.81202 8.25906 2.81202 7.20079 2.81055 6.14239C2.81055 6.10397 2.81664 6.09067 2.85968 6.09067C5.01492 6.0919 7.16965 6.0919 9.3239 6.09067C9.36085 6.09067 9.37212 6.09861 9.37193 6.13777C9.37082 7.199 9.37082 8.26035 9.37193 9.32183C9.37193 9.36339 9.36085 9.3717 9.32113 9.3717C8.24536 9.37109 7.16898 9.37103 6.09198 9.37152Z" fill="#FEFEFE"/>
<path d="M3.28114 7.72943C3.28114 7.35572 3.28114 6.982 3.28114 6.60828C3.28114 6.56967 3.2913 6.55988 3.32935 6.56062C3.45534 6.56302 3.58152 6.5632 3.70751 6.56062C3.74593 6.56062 3.75258 6.57299 3.75203 6.60735C3.75018 6.73353 3.75203 6.8597 3.75055 6.98569C3.75055 7.0195 3.75794 7.03021 3.79341 7.02966C3.92106 7.02744 4.04871 7.02966 4.17637 7.028C4.2098 7.028 4.22162 7.03575 4.22088 7.07141C4.21867 7.19906 4.22088 7.32671 4.21941 7.45436C4.21941 7.48706 4.2255 7.49907 4.26171 7.49888C4.5462 7.49741 4.83069 7.49741 5.11518 7.49888C5.15213 7.49888 5.1573 7.48614 5.15693 7.45399C5.15527 7.328 5.15694 7.20183 5.15527 7.07566C5.15527 7.03631 5.1671 7.02726 5.2046 7.028C5.33225 7.03021 5.4599 7.028 5.58755 7.02947C5.61748 7.02947 5.62653 7.02153 5.62616 6.99105C5.6245 6.86044 5.62616 6.72965 5.62468 6.59886C5.62468 6.56801 5.63392 6.56062 5.66348 6.56191C5.79409 6.56339 5.92488 6.56376 6.05549 6.56191C6.08966 6.56191 6.0952 6.57373 6.0952 6.6044C6.09446 7.35787 6.09446 8.11147 6.0952 8.86519C6.0952 8.89696 6.08689 8.9073 6.05419 8.90694C5.92488 8.90509 5.79556 8.90472 5.66625 8.90694C5.6293 8.90694 5.62413 8.89511 5.62413 8.86223C5.62542 8.57922 5.62413 8.29639 5.62561 8.01337C5.62561 7.97901 5.6197 7.9659 5.58127 7.96663C5.45196 7.96941 5.32265 7.96867 5.19333 7.96663C5.16322 7.96663 5.15417 7.97439 5.15454 8.00506C5.15601 8.13567 5.15454 8.26646 5.15601 8.39725C5.15601 8.43032 5.14604 8.43771 5.11445 8.43752C4.82996 8.43629 4.54552 8.43629 4.26116 8.43752C4.2255 8.43752 4.21775 8.42718 4.21812 8.39337C4.22015 8.26406 4.21811 8.13474 4.21959 8.00543C4.21959 7.97643 4.21313 7.96553 4.18154 7.96608C4.05099 7.96793 3.92032 7.96793 3.78953 7.96608C3.75591 7.96608 3.74944 7.97698 3.74963 8.00783C3.75073 8.29084 3.74963 8.57386 3.75111 8.85761C3.75111 8.89456 3.74408 8.90786 3.704 8.90694C3.57801 8.90416 3.45184 8.90453 3.32585 8.90694C3.2889 8.90694 3.27985 8.89751 3.28003 8.86112C3.28151 8.48315 3.28114 8.10629 3.28114 7.72943Z" fill="#875C2D"/>
<path d="M7.73468 6.56155C7.95451 6.56155 8.17434 6.56155 8.39417 6.56063C8.42946 6.56063 8.43759 6.5706 8.4374 6.60459C8.43611 6.8876 8.4374 7.17042 8.43574 7.45343C8.43574 7.49038 8.44682 7.49925 8.48229 7.49869C8.60976 7.49666 8.73741 7.49869 8.86506 7.49721C8.89536 7.49721 8.90441 7.50571 8.90404 7.53619C8.90231 7.66698 8.90231 7.79771 8.90404 7.92837C8.90404 7.95793 8.89683 7.96772 8.86598 7.96735C8.73833 7.96569 8.61068 7.96828 8.48303 7.96569C8.4435 7.96477 8.43519 7.97751 8.43574 8.01464C8.43814 8.14082 8.43574 8.26699 8.4374 8.39297C8.4374 8.42678 8.42983 8.43749 8.39436 8.43694C8.26689 8.43472 8.13924 8.43694 8.01159 8.43509C7.97354 8.43417 7.96671 8.44691 7.96726 8.48146C7.96911 8.60911 7.96726 8.73676 7.96874 8.86422C7.96874 8.89655 7.96024 8.90597 7.92772 8.9056C7.79841 8.90375 7.6691 8.90338 7.53978 8.9056C7.50284 8.9056 7.49675 8.89433 7.4973 8.86108C7.49915 8.73177 7.4973 8.60246 7.49877 8.47315C7.49877 8.44304 7.49083 8.43435 7.46054 8.43472C7.32993 8.43638 7.19914 8.43472 7.06854 8.4362C7.03584 8.4362 7.02697 8.42715 7.02752 8.39482C7.02918 8.27031 7.02531 8.14562 7.02955 8.02129C7.03122 7.97197 7.01496 7.96384 6.97063 7.96495C6.84778 7.96791 6.72475 7.96495 6.60116 7.96661C6.57068 7.96661 6.5583 7.96107 6.55886 7.9269C6.56083 7.79771 6.56083 7.6684 6.55886 7.53896C6.55886 7.50312 6.57031 7.49555 6.60374 7.49592C6.72825 7.49795 6.85276 7.49592 6.97727 7.49758C7.01625 7.49851 7.02918 7.49056 7.02882 7.44807C7.0266 7.16987 7.02882 6.89148 7.02679 6.61328C7.02679 6.57264 7.03454 6.55878 7.07869 6.55915C7.29797 6.56284 7.51632 6.56155 7.73468 6.56155Z" fill="#875C2D"/>
</g>
<defs>
<clipPath id="clip0_302_1630">
<rect width="12.1869" height="15" fill="white"/>
</clipPath>
</defs>
</svg>
