<svg width="472" height="50" viewBox="0 0 472 50" fill="none" xmlns="http://www.w3.org/2000/svg">
<g clip-path="url(#clip0_240_4312)">
<path d="M222.359 17.9661H220.651V0.0327753H231.536V3.13542H235.178V17.8022H236.946V20.9823H240.54V26.675H242.146V17.7694H247.526C247.544 15.3672 247.526 12.1781 247.526 9.77586V8.94134C248.009 8.91749 258.205 8.88769 258.458 8.94134C258.458 9.94873 258.458 10.9889 258.458 12.0917H262.107C262.077 13.725 262.107 16.0557 262.107 17.7843H263.811V20.9764H267.45V26.6959H269.003V17.7694H274.368V0.0148926H285.357V3.14734H288.934V23.2266H283.649V41.0735H278.267V49.9761H265.376V44.7723H263.668V41.1302H260.014V35.819H258.301V32.2425H251.353V41.0885H245.97V49.991H233.134V44.7753H231.402V41.1302H227.739V35.8518H225.983V23.2475H222.359V17.9661ZM279.924 17.9661V35.8488H274.592V44.7604H267.537V47.7229H276.162V38.8352H281.527V20.9972H286.82V5.46017H285.351V17.9781L279.924 17.9661ZM258.247 26.9373H247.675V35.8518H242.29V44.7395H235.244V47.705H243.887V38.8382H249.252V29.9177H258.25L258.247 26.9373ZM277.512 49.2132V40.3284H282.958V22.4875H288.245V3.91034C287.449 3.91034 286.129 3.91034 285.369 3.91034V4.71506H287.557V21.7573H282.248V39.5833H276.824V48.477H266.774V44.7544L266.109 44.7931V49.2251L277.512 49.2132ZM233.852 49.2132H245.306V40.3493C246.948 40.3493 249.067 40.3284 250.602 40.3493V39.5923C250.602 39.5923 250.602 37.2943 250.602 36.0813C250.602 34.5553 250.602 33.0293 250.602 31.4139H258.286C258.259 31.1159 258.241 30.9162 258.226 30.7195H249.934V39.5982H244.57V48.48H234.502C234.502 47.3563 234.502 45.7976 234.502 44.7484H233.849L233.852 49.2132ZM231.536 5.44825V17.7694H233.071V5.44825H231.536ZM233.822 17.7396C234.567 17.9542 234.502 17.5161 234.502 17.1435V3.91034H231.536V4.66141H233.822V17.7396ZM259.94 17.7813V14.4045H258.509V17.7813H259.94ZM263.814 23.3071V26.6839H265.322V23.3071H263.814ZM266.738 21.8169H263.814V22.5083C264.354 22.4905 265.433 22.5083 266.056 22.5083C266.056 23.7929 266.071 24.997 266.056 26.2011C266.056 26.7525 266.285 26.8151 266.744 26.669L266.738 21.8169ZM261.385 17.7694V12.8934H258.521V13.5879C259.058 13.567 260.083 13.5879 260.703 13.5879C260.703 14.8754 260.721 16.5683 260.703 17.7605L261.385 17.7694ZM238.436 26.7108V23.3011H237.038V26.7018L238.436 26.7108ZM223.081 22.5054C223.912 22.5054 224.651 22.4845 225.393 22.5054C225.966 22.5262 226.085 22.2997 225.864 21.7334H223.751V17.99L223.081 18.0347V22.5054ZM261.385 39.6072V35.816L260.742 35.8816V40.2927H263.624C263.624 40.0453 263.603 39.8605 263.591 39.6072H261.385ZM228.395 40.3046H231.375V39.5982H229.059V35.8518H228.401C228.389 37.1572 228.407 38.8919 228.407 40.3046H228.395ZM236.996 22.5322H239.202V26.669L239.393 26.8061C239.548 26.672 239.834 26.5409 239.837 26.4008C239.869 24.8778 239.858 23.3518 239.858 21.796H236.996V22.5322ZM224.517 18.0079V20.9376H225.918V18.0079H224.517ZM263.609 35.8905H262.163V38.8054H263.609V35.8905ZM231.342 35.8905H229.876V38.7995H231.342V35.8905Z" fill="#BBEFFF"/>
<path d="M376.788 0V3.13543H380.43V8.88174H382.195V12.0619H385.771V49.997H372.982V44.7634H371.248V32.2455H358.95V49.9881H346.081V44.7514H344.391V8.84299H349.723V0H376.788ZM356.861 29.8969H371.182V26.9462H355.246V44.7753H348.218V47.7051H356.861V29.8969ZM382.195 14.3598V44.7604H375.128V47.6991H383.682V14.3717L382.195 14.3598ZM356.861 12.0649H371.197V9.08441H355.344V17.7665H356.861V12.0649ZM371.209 14.3747H358.989V17.7575H371.209V14.3747ZM373.715 44.7753V49.2132H385.074V12.8755H382.231C382.248 13.1259 382.26 13.3315 382.278 13.6117H384.418V48.483H374.344V44.7544L373.715 44.7753ZM357.529 30.7165V48.4621H347.497C347.497 47.3683 347.497 46.3549 347.497 45.3416C347.497 44.7455 347.497 44.7455 346.829 44.823V49.1983H358.25V31.4139H371.185V30.7284L357.529 30.7165ZM371.197 12.8755H357.541C357.541 14.4134 357.523 15.8977 357.561 17.379C357.561 17.5519 357.86 17.7158 358.032 17.8857L358.274 17.7366V13.5581H371.233C371.206 13.2809 371.197 13.0931 371.185 12.8875L371.197 12.8755ZM378.326 8.85789V5.46316H376.866V8.86981L378.326 8.85789ZM379.763 3.89843C378.869 3.89843 378.088 3.87458 377.304 3.91333C377.134 3.91333 376.973 4.14878 376.809 4.27396C376.973 4.39914 377.128 4.61671 377.301 4.63162C377.879 4.67632 378.463 4.6495 379.089 4.6495C379.089 5.98772 379.089 7.1948 379.089 8.40188C379.089 8.56283 379.28 8.71781 379.387 8.87578C379.509 8.73867 379.736 8.60157 379.739 8.46149C379.763 6.99511 379.751 5.51681 379.751 3.91035L379.763 3.89843Z" fill="#BBEFFF"/>
<path d="M170.595 41.1302H165.23V50.003H130.842V44.7574H129.152V0H161.597V3.14735H165.194V8.85491H166.956V12.0768H170.595V41.1302ZM143.771 14.3926V35.6164H156.038C156.038 30.1681 156.038 24.0135 156.038 18.5652V14.3926H143.771ZM168.479 38.868V14.3807H166.959V35.8399H161.564V44.7812H133V47.708H163.15V38.8561L168.479 38.868ZM141.628 35.6432V12.0649H156.003V9.0844H140.117V35.6104L141.628 35.6432ZM163.811 39.6072V48.4919H132.252V44.7604L131.581 44.7902V49.2012H164.566V40.3195H169.886V12.8696H167.007V13.6087H169.179V39.5923L163.811 39.6072ZM142.984 35.6164V13.5819H143.92C147.714 13.5819 151.511 13.5819 155.305 13.5819C155.553 13.5819 155.982 13.3912 156.009 13.2362C156.098 12.7056 155.624 12.8517 155.341 12.8517C152.19 12.8517 149.039 12.8517 145.89 12.8517H142.299V13.7816C142.299 16.9766 142.299 20.1687 142.299 23.3637C142.299 24.6483 142.346 25.9359 142.346 27.2383C142.346 29.8879 142.319 32.9876 142.293 35.6372L142.984 35.6164ZM161.645 4.71507H163.859V8.82511C164.324 8.97115 164.563 8.89366 164.548 8.384C164.524 7.69254 164.548 7.00107 164.548 6.29769V3.96698H161.651L161.645 4.71507ZM163.06 8.85789V5.45422H161.657V8.85789H163.06Z" fill="#BBEFFF"/>
<path d="M86.114 8.83702H91.4222V0.0148926H118.529V3.16523H122.157V8.87576H123.891V12.0678H127.545V49.9702H114.729V44.7842L113.001 44.7097V32.2365H100.679V49.9821H87.8129V44.7633H86.114V8.83702ZM112.959 26.9462H96.9837V44.7723H89.9469V47.6872H98.5902V29.9028H112.959V26.9462ZM123.885 14.3717V44.7723H116.857V47.717H125.414V14.3717H123.885ZM97.0612 9.08738V17.7754H98.5783V12.0589H112.959V9.07843L97.0612 9.08738ZM112.959 14.3985H100.703V17.7724H112.959V14.3985ZM126.141 13.5759V48.474H116.121C116.121 47.3593 116.103 46.3191 116.121 45.2849C116.121 44.7395 115.895 44.665 115.448 44.8021V49.2102H126.833V12.8874H123.942V13.5759H126.141ZM88.5192 44.7812V49.2251H99.9254V31.4258H112.908C113.132 30.6837 112.735 30.6688 112.264 30.6688C108.171 30.6688 104.077 30.6688 99.982 30.6688C99.7466 30.6688 99.5111 30.6986 99.2012 30.7224V48.48H89.1898V44.7812H88.5192ZM99.9344 13.5849H100.796C104.614 13.5849 108.432 13.5849 112.25 13.567C112.497 13.567 112.938 13.3733 112.956 13.2302C113.027 12.6341 112.515 12.8398 112.22 12.8398C109.123 12.8398 106.023 12.8398 102.927 12.8398H99.2489C99.2489 14.4552 99.2488 15.9603 99.2727 17.4654C99.2727 17.6115 99.5976 17.7635 99.7704 17.8946L99.9403 17.7486L99.9344 13.5849ZM120.797 8.83702H121.495C121.495 8.83702 121.495 4.75082 121.495 3.96697H118.598V4.67929H120.803L120.797 8.83702ZM120.023 8.85788V5.46613H118.589V8.85788H120.023Z" fill="#BBEFFF"/>
<path d="M44.7485 49.9702V44.7574H43.0466V0H53.9461V3.14735H57.6121V17.7665C58.6076 17.7665 69.8647 17.7366 69.9422 17.7665C69.9422 17.7665 69.9422 17.4267 69.9422 17.2121C69.9601 14.5625 69.9422 11.9099 69.9422 9.26025C69.9422 6.31358 69.9422 3.36592 69.9422 0.417263C69.9422 0.298045 69.9631 0.178827 69.978 0.0119218H80.8298V3.14139H84.4868V49.9911H71.6709V44.7693H69.9303V43.8752C69.9303 40.2331 69.9154 36.5939 69.9303 32.9518C69.9303 32.3379 69.7634 32.1531 69.1405 32.1561C65.5192 32.1829 61.895 32.1561 58.2737 32.1561C58.077 32.1561 57.8803 32.1739 57.6091 32.1859V49.9434L44.7485 49.9702ZM46.8795 47.717H55.5049V29.9058H69.8886V26.9552H53.9461V44.7425H46.8795V47.717ZM80.8804 44.7604H73.7929V47.708H82.3766V5.4572H80.8864L80.8804 44.7604ZM83.083 4.65546V48.468H73.0687C73.0687 47.3504 73.0687 46.3132 73.0687 45.276C73.0687 44.7365 73.0508 44.7365 72.404 44.8289V49.2042H83.7923V3.96698H80.9013V4.65546H83.083ZM45.4608 49.2102H56.9057V31.4616C57.2216 31.4616 57.466 31.4288 57.7104 31.4288H63.5938C65.5311 31.4288 67.4684 31.4288 69.4027 31.4288C69.5816 31.4288 69.7604 31.2232 69.9392 31.1129C69.7634 30.9728 69.5935 30.8149 69.4087 30.6986C69.358 30.6629 69.2627 30.6986 69.1881 30.6986H56.1815V48.5008H46.1225V44.7276L45.4608 44.8081V49.2102ZM54.0117 5.46316V17.7635H55.4662V5.46316H54.0117ZM56.2411 4.66142C56.2411 6.29769 56.2411 7.82666 56.2411 9.35563C56.2411 12.0052 56.2143 15.1168 56.1874 17.7665H56.8342V3.91035C56.0205 3.91035 54.7807 3.91035 54.0147 3.91035V4.66738L56.2411 4.66142Z" fill="#BBEFFF"/>
<path d="M177.542 44.7753V41.1034H173.906V35.819H172.216V8.94134H177.53V0.0327759H204.635V3.13244H208.256V8.86981H209.993V12.0589H213.642V41.1093C212.327 41.1093 211.022 41.1093 209.719 41.1093C208.05 41.1242 208.277 40.7964 208.277 42.6204V49.9732H179.325V44.7753H177.542ZM199.094 35.6014C199.094 35.6521 199.094 34.9547 199.094 34.8563V14.4015H186.818V35.6134L199.094 35.6014ZM206.205 47.7259V38.8203H211.522V14.3807H209.999V35.8548H204.635V44.7544H181.444V47.7349L206.205 47.7259ZM184.681 35.6164V12.0708H199.064V9.09036H183.169V35.6164H184.681ZM212.965 12.8696H210.068V13.6117H212.235V39.64H206.87V48.4829H180.66V44.7693L180.413 44.6441C180.272 44.8379 180.016 45.0256 180.01 45.2402C179.971 46.4026 180.01 47.5679 179.983 48.7333C179.983 49.1535 180.129 49.3026 180.547 49.2906C181.39 49.2638 182.234 49.2608 183.077 49.2608C190.993 49.2608 198.91 49.2678 206.828 49.2817C207.064 49.2817 207.302 49.2489 207.618 49.2251V40.3195H212.965V12.8696ZM185.351 12.8308V13.7607C185.351 16.9518 185.351 20.1448 185.351 23.3399C185.351 24.6274 185.399 25.915 185.396 27.2145C185.396 29.8631 185.379 32.5127 185.345 35.1633C185.345 35.67 185.563 35.7594 186.043 35.5955V13.5819H186.975C190.719 13.5819 194.465 13.5819 198.212 13.5819C198.51 13.5819 199.058 13.865 199.085 13.2451C199.112 12.6252 198.555 12.8606 198.251 12.8576C195.202 12.8368 192.15 12.8576 189.098 12.8576L185.351 12.8308ZM206.906 4.66141V8.83404C207.386 8.98008 207.615 8.89365 207.6 8.38697C207.579 7.59715 207.6 6.80734 207.6 6.00261V3.94312H204.703V4.66141H206.906ZM204.697 8.83404H206.116V5.45421H204.697V8.83404ZM175.292 39.5982V35.8548L175.089 35.7266C174.923 35.8816 174.613 36.0247 174.607 36.1975C174.568 37.5477 174.586 38.8978 174.586 40.2957H177.522V39.5982H175.292ZM176.052 35.8488V38.8025H177.498V35.8488H176.052Z" fill="#BBEFFF"/>
<path d="M468.324 0V3.15928H471.9V14.33H445.1V17.8171H462.905V20.9883H466.55V26.6869H468.315V29.9118H471.891V41.0706H466.595V49.9851H432.189V44.7753H430.532V35.6879C430.928 35.6879 449.926 35.6015 457.275 35.6015V32.1888H437.569V26.9194H435.834V23.2475H432.165V17.993H430.517V8.87876C430.94 8.85789 435.816 8.87876 435.816 8.87876C435.837 6.52718 435.816 3.2159 435.816 0.86433V0H468.324ZM469.781 38.8382V32.2216H468.309V35.8459H462.899V44.7365H434.266V47.717H464.497V38.8502L469.781 38.8382ZM468.321 9.07845H441.425V17.7843H442.96V12.0798H469.784V5.46316H468.294L468.321 9.07845ZM439.679 26.9105V29.8462H457.281V26.9224L439.679 26.9105ZM432.913 49.2102H465.862V40.3374H471.173V30.7165H468.336C468.336 30.9639 468.357 31.1666 468.369 31.4527H470.512V39.6012H465.191V48.4859H433.599V44.8021H432.91L432.913 49.2102ZM470.517 12.8487H443.637C443.637 14.4224 443.637 15.8828 443.637 17.3432C443.637 17.9155 443.935 17.8201 444.367 17.7456V13.564H471.191V3.95208H468.383V4.6793H470.529L470.517 12.8487ZM457.287 30.645H438.943V26.9403H438.311V31.3692H457.332C457.317 31.1218 457.305 30.9341 457.287 30.6539V30.645ZM462.95 23.2922V26.6869H464.44V23.3011L462.95 23.2922ZM432.928 17.987V22.5054H435.78V21.7573H433.596V18.0228L432.928 17.987ZM435.78 20.9675V18.0198H434.311V20.9555L435.78 20.9675ZM465.862 21.7573H462.902V22.4934C462.902 22.4934 464.595 22.5113 465.188 22.5113C465.188 23.8674 465.188 25.4918 465.188 26.684H465.844C465.871 25.2086 465.862 23.3429 465.862 21.7573Z" fill="#BBEFFF"/>
<path d="M5.31712 8.84595V0.0297852H37.7861V3.14733H41.4282V14.3061H14.6042V17.8022H32.4273V21.0121H36.0634V26.7227H37.798V29.9147H41.4521V41.1123C40.1258 41.1123 38.8233 41.1123 37.5209 41.1123C35.8369 41.1272 36.0694 40.8142 36.0694 42.6025C36.0694 45.0465 36.0694 47.4904 36.0694 49.9881H1.71376V44.7663H0V35.6104H26.824V32.1888H7.10539V26.9313H5.36481V23.2475H1.70482V18.0049H0V8.84595H5.31712ZM3.8269 47.711H33.9771V38.8412H39.3211V32.2216H37.7921V35.8578H32.4064V44.7544H3.8269V47.711ZM37.804 9.08439H10.9531V17.7664H12.4434V12.0857H39.3121V5.48102H37.7951L37.804 9.08439ZM9.23939 26.9373V29.873H26.8479V26.9373H9.23939ZM35.3988 49.234V40.3254H40.7338V30.7165H37.8517V31.4467H40.0274V39.6131H34.6626V48.4919H3.09073V44.7991H2.41714V49.234H35.3988ZM40.0244 4.66736V12.8398H13.1378C13.1378 14.4313 13.1378 16.2643 13.1617 17.7664H13.8203V13.5938H40.7368V3.961H37.8517V4.66736H40.0244ZM7.77301 31.4139H10.9949C16.0616 31.4139 21.7632 31.4139 26.8479 31.4139V30.6986C21.7394 30.6986 16.0259 30.6986 10.9174 30.6986C10.1156 30.6986 9.31092 30.6986 8.44361 30.6986V26.9254L8.2469 26.8061C8.08894 26.9701 7.79983 27.131 7.79387 27.3009C7.74917 28.6331 7.77301 29.9654 7.77301 31.4139ZM34.6805 22.5173V26.8836C34.9964 26.6899 35.3422 26.5856 35.3451 26.4604C35.3809 24.9165 35.369 23.3697 35.369 21.8049H32.4273L32.5018 22.5173H34.6805ZM33.9294 23.319H32.4869V26.6839H33.9294V23.319ZM2.40522 22.4547H5.3052V21.7573H3.07582V17.978L2.40522 18.0198V22.4547ZM3.82094 20.9466H5.29626V18.0406H3.82094V20.9466Z" fill="#BBEFFF"/>
<path d="M301.344 0H333.724V3.14735H337.387V8.84299H339.124V12.0529H342.701V23.2475H337.408V32.1888H315.895V49.9821H302.995V44.7604H301.329L301.344 0ZM339.157 17.984H333.736V26.9254H312.19V44.7604H305.153V47.714H313.797V29.9297H335.312V20.9883H340.627V14.3866H339.136L339.157 17.984ZM313.803 12.0649H328.127V9.10527H312.283V17.7486H313.803V12.0649ZM315.174 49.2251V31.4229H336.71V22.4815H342.007V12.8755H339.175C339.175 13.1259 339.202 13.3315 339.223 13.6147H341.357V21.7573H336.034V30.6986H314.437V48.4949H304.429V44.7812H303.77V49.2281L315.174 49.2251ZM315.928 17.7545H328.106V14.3896H315.928V17.7545ZM328.147 12.9024H314.488C314.488 14.4313 314.488 15.8828 314.488 17.3522C314.488 17.9214 314.786 17.829 315.218 17.7545V13.5819H328.147V12.9024ZM335.265 8.8728V5.46912H333.81V8.8728H335.265ZM336.034 4.66142C336.034 4.66142 336.007 7.70744 336.034 8.83405H336.713V3.91035H333.81V4.64354C334.341 4.69421 335.473 4.66142 336.019 4.66142H336.034Z" fill="#BBEFFF"/>
<path d="M387.458 0H398.31V3.14437H401.97V35.6074C402.995 35.6074 424.973 35.664 425.25 35.7356V38.8174H428.827V49.994H389.127V44.7663H387.458V0ZM425.268 44.7723H391.261V47.7259H426.729V41.1689H425.238L425.268 44.7723ZM399.86 35.6342V5.46912H398.391V35.6342H399.86ZM427.474 48.477H390.54C390.54 47.3653 390.522 46.3281 390.54 45.2939C390.555 44.7604 390.337 44.6501 389.887 44.7991V49.2191H428.126V39.5953C427.334 39.5953 426.571 39.6102 425.808 39.5953C425.194 39.5804 425.167 39.8665 425.399 40.397H427.465L427.474 48.477ZM401.246 35.6164V3.95207H398.337C398.337 4.20243 398.364 4.40808 398.379 4.70315H400.608V35.6164H401.246Z" fill="#BBEFFF"/>
</g>
<defs>
<clipPath id="clip0_240_4312">
<rect width="471.897" height="50" fill="white"/>
</clipPath>
</defs>
</svg>
